# xmcd
#
# Track frame offsets: 
#        150
#        16113
#        33110
#        54151
#        72144
#        87894
#        105852
#        127427
#        140056
#        156963
#        173833
#        186874
#
# Disc length: 2644 seconds
#
# Revision: 2
# Processed by: cddbd v1.5.2PL0 Copyright (c) Steve Scherf et al.
# Submitted via: ExactAudioCopyFreeDBPlugin 1.0
#
DISCID=970a520c
DTITLE=Pierre Perret - La femme grillagée
DYEAR=2011
DGENRE=Variété Française
TTITLE0=Le femme grillagée
TTITLE1=Chanson minable
TTITLE2=La vie du pape
TTITLE3=Femmes battues
TTITLE4=La mère des cons
TTITLE5=Les enfants d'là-bas
TTITLE6=Le cul
TTITLE7=Sauvage
TTITLE8=Ainsi parlait mon grand-père
TTITLE9=Clémentine
TTITLE10=La réponse à ma vie
TTITLE11=Un jour ça va
EXTD=Intégrale 1957 - 2011
EXTT0=
EXTT1=
EXTT2=
EXTT3=
EXTT4=
EXTT5=
EXTT6=
EXTT7=
EXTT8=
EXTT9=
EXTT10=
EXTT11=
PLAYORDER=
